<svg xmlns="http://www.w3.org/2000/svg" viewBox="0 0 200 200">
  <style>
    .background { fill: #f5f5f5; }
    .face { fill: #ffe0b2; }
    .hair { fill: #8d6e63; }
    .shirt { fill: #4caf50; }
    .eyes { fill: #5d4037; }
    .mouth { fill: none; stroke: #5d4037; stroke-width: 2; }
    .glasses { fill: none; stroke: #424242; stroke-width: 2; }
  </style>
  <circle cx="100" cy="100" r="80" class="background" />
  <circle cx="100" cy="100" r="50" class="face" />
  <path d="M70,70 C70,50 130,50 130,70" class="hair" />
  <path d="M70,70 C70,60 80,50 100,50 S130,60 130,70" class="hair" />
  <path d="M60,100 C60,150 140,150 140,100" class="shirt" />
  <circle cx="85" cy="90" r="5" class="eyes" />
  <circle cx="115" cy="90" r="5" class="eyes" />
  <path d="M85,110 C90,120 110,120 115,110" class="mouth" />
  <path d="M75,90 C80,85 90,85 95,90" class="glasses" />
  <path d="M105,90 C110,85 120,85 125,90" class="glasses" />
  <path d="M95,90 L105,90" class="glasses" />
</svg>