<svg xmlns="http://www.w3.org/2000/svg" viewBox="0 0 200 200">
  <style>
    .plate { fill: #f5f5f5; stroke: #e0e0e0; stroke-width: 2; }
    .lettuce { fill: #7cb342; }
    .tomato { fill: #e53935; }
    .cucumber { fill: #aed581; }
    .cheese { fill: #ffecb3; }
    .dressing { fill: #fff59d; opacity: 0.5; }
  </style>
  <circle cx="100" cy="100" r="80" class="plate" />
  <path d="M40,100 C60,70 140,70 160,100 S140,130 100,130 S20,130 40,100 Z" class="lettuce" />
  <circle cx="70" cy="90" r="10" class="tomato" />
  <circle cx="130" cy="90" r="10" class="tomato" />
  <circle cx="100" cy="85" r="10" class="tomato" />
  <path d="M60,110 C70,100 80,110 90,100 S100,110 110,100 S120,110 130,100" stroke="#aed581" stroke-width="5" fill="none" />
  <path d="M70,95 C80,85 90,95 100,85 S110,95 120,85" stroke="#aed581" stroke-width="5" fill="none" />
  <path d="M50,105 C60,95 70,105 80,95 S90,105 100,95 S110,105 120,95 S130,105 140,95" stroke="#ffecb3" stroke-width="3" fill="none" />
  <ellipse cx="100" cy="100" rx="50" ry="10" class="dressing" />
</svg>