<svg xmlns="http://www.w3.org/2000/svg" viewBox="0 0 448 512" width="60" height="60">
  <path fill="#4DB33D" d="M224 340.2c-91.5 0-165.8-73.6-165.8-164.3 0-90.7 74.3-164.3 165.8-164.3 91.5 0 165.8 73.6 165.8 164.3 0 90.6-74.3 164.3-165.8 164.3zm0-296.3c-73.6 0-133.4 59.3-133.4 132 0 72.7 59.8 132 133.4 132 73.6 0 133.4-59.3 133.4-132 0-72.7-59.8-132-133.4-132z"/>
  <path fill="#4DB33D" d="M235.9 303.9c-6.6 0-12-5.4-12-12V188.2c0-6.6 5.4-12 12-12s12 5.4 12 12v103.7c0 6.6-5.4 12-12 12z"/>
  <path fill="#4DB33D" d="M283.7 256.1H188.2c-6.6 0-12-5.4-12-12s5.4-12 12-12h95.5c6.6 0 12 5.4 12 12s-5.4 12-12 12z"/>
  <path fill="#4DB33D" d="M224 408c-6.5 0-12.3-4.4-14-10.7l-24-88c-1.8-6.4 1.9-13.1 8.3-14.9 6.4-1.8 13.1 1.9 14.9 8.3l15.8 58 15.8-58c1.8-6.4 8.5-10.1 14.9-8.3 6.4 1.8 10.1 8.5 8.3 14.9l-24 88c-1.7 6.3-7.5 10.7-14 10.7z"/>
</svg>